<?xml version="1.0" encoding="utf-8"?>
<!-- Generator: Adobe Illustrator 21.0.2, SVG Export Plug-In . SVG Version: 6.00 Build 0)  -->
<svg version="1.2" baseProfile="tiny" id="Layer_1" xmlns="http://www.w3.org/2000/svg" xmlns:xlink="http://www.w3.org/1999/xlink"
	 x="0px" y="0px" viewBox="0 0 565 150" overflow="visible" xml:space="preserve">
<g>
	<g>
		<path fill="#444545" d="M339.6,75c0,35.2-9.1,47-35.1,47s-35.1-11.8-35.1-47c0-35.2,9.1-47,35.1-47S339.6,39.8,339.6,75z
			 M278.4,75c0,29.5,6.6,39.4,26.1,39.4c19.5,0,26-9.9,26-39.4s-6.5-39.4-26-39.4C285,35.6,278.4,45.5,278.4,75z"/>
		<path fill="#444545" d="M423,116.7c0,2.5-1.2,3.7-3.6,3.7h-9.2c-2.1,0-3.3-0.9-4.2-2.9l-34.7-69c-1.6-3.3-4-7.5-5.1-10.9h-2.5
			c0.3,3.6,0.3,7.2,0.3,10.9v71.9h-8.6V33.3c0-2.5,1.2-3.7,3.6-3.7h9c2.1,0,3.3,0.9,4.2,2.9L406,99.9c1.8,3.7,4.1,8.2,6.1,12.2h2.8
			c-0.3-4.3-0.4-8.7-0.4-13V29.6h8.6V116.7z"/>
		<path fill="#444545" d="M496.3,119.8c-12.4,0.8-26,0.8-38.9,0.8c-9.7,0-16.1-5.9-16.1-15V44.5c0-9.1,6.5-15,16.1-15
			c12.9,0,26.5,0,38.9,0.8l-0.5,6.6h-36.9c-5.7,0-8.8,3.3-8.8,9.6v22.2h40.6v7H450v28c0,6.2,3.2,9.5,8.8,9.5h36.9L496.3,119.8z"/>
		<path fill="#444545" d="M60.2,33.9c-0.8-2.8-3.2-4.3-5.9-4.3H38.2c-2.8,0-5.1,1.6-5.9,4.3L5,120.4h16.9l20.6-70.6l2.1-7.8h3.6
			c0.4,2.5,1.3,5.3,2,7.8l20.6,70.6h16.9L60.2,33.9z"/>
		<path fill="#444545" d="M158.2,92c-2-8.7-7.6-12.4-12.1-13.4v-0.7c12.5-1.6,17-9.3,17-22.9c0-20.7-9.2-26.6-31.6-26.6
			c-15.5,0-22.7,0.1-33.1,1.2v90.8h16.3V42H131c11.6,0,15.3,2.9,15.3,14.1c0,11.2-3.7,14.4-15.3,14.5h-0.1L122,84l9,0.1
			c5.5,0,8.7,2.2,10.5,8.2l7.2,28.2h17.5L158.2,92z"/>
		<g>
			<path fill="#444545" d="M223,81.2c-1.7-2.8-4.4-5.4-7.3-7.8V73c2.8-2.4,4.6-4.1,6.3-6.8l24.5-36.6h-17.9l-32.9,49.9h8l26.1,40.9
				h18.4L223,81.2z"/>
			<rect x="179.1" y="29.6" fill="#444545" width="16.5" height="90.8"/>
		</g>
	</g>
	<g>
		<g>
			<path fill="#F89720" d="M261.8,104.9c3.2,0,4.2,1.1,4.2,4.2v7.1c0,3.2-1.1,4.2-4.2,4.2h-3.7c-3,0-4.2-1.1-4.2-4.2v-7.1
				c0-3.2,1.2-4.2,4.2-4.2H261.8z"/>
			<path fill="#F89720" d="M48.1,103.6c3.2,0,4.2,1.1,4.2,4.2v7.1c0,3.2-1.1,4.2-4.2,4.2h-3.7c-3,0-4.2-1.1-4.2-4.2v-7.1
				c0-3.2,1.2-4.2,4.2-4.2H48.1z"/>
		</g>
		<g>
			<path fill="#F89720" d="M530.9,106.7v3.8h-7.7v6.1h7.7v3.8h-17.2v-3.8h6.6v-6.1h-6.6v-3.8H530.9z"/>
			<path fill="#F89720" d="M530.7,91.2c0.3,2.3,0.3,5.3,0.3,8c0,2.3-1.3,3.8-3.5,3.8h-10.4c-2.1,0-3.5-1.5-3.5-3.8
				c0-2.7,0-5.6,0.2-8l2.8,0.2V98c0,0.8,0.4,1.2,1.3,1.2h2.6v-6.9h2.7v6.9h3.3c0.9,0,1.3-0.3,1.3-1.2v-6.6L530.7,91.2z"/>
			<path fill="#F89720" d="M526.4,84l4.5,1.2v3.9l-16.2-5c-0.6-0.1-1-0.7-1-1.3v-3.6c0-0.6,0.4-1.2,1-1.3l16.2-5v3.9l-4.5,1.2V84z
				 M518.2,80.3c-0.5,0.1-1.1,0.3-1.6,0.3v0.7c0.5,0.1,1.1,0.2,1.6,0.4l5.3,1.4v-4.3L518.2,80.3z"/>
			<path fill="#F89720" d="M526.6,67c0.9,0,1.3-0.4,1.3-1.3v-5.9l2.9-0.2c0.2,2.3,0.3,4.8,0.3,7.3c0,2.8-1.5,3.9-3.7,3.9h-13.6V67
				H526.6z"/>
			<path fill="#F89720" d="M516.8,51.2h14.1V55h-14.1v5.1h-3.1V46h3.1V51.2z"/>
			<path fill="#F89720" d="M530.9,29.7v3.8h-7.7v6.1h7.7v3.8h-17.2v-3.8h6.6v-6.1h-6.6v-3.8H530.9z"/>
		</g>
	</g>
</g>
</svg>
